# xmcd
#
# Track frame offsets: 
#        150
#        17795
#        34274
#        58691
#        73733
#        89193
#        108224
#        128854
#        147619
#        159551
#        186287
#        202911
#        219791
#        246533
#        259291
#        277020
#        302236
#        325603
#
# Disc length: 4767 seconds
#
# Revision: 0
# Processed by: cddbd v1.5.2PL0 Copyright (c) Steve Scherf et al.
# Submitted via: ExactAudioCopy v1.3
#
DISCID=1a129d12
DTITLE=Various Artist - Akella Presents - vol.168 - Rockin' Blues  CD
DTITLE=1
DYEAR=2018
DGENRE=Blues
TTITLE0=Ghost Riders - Cajun Jesus
TTITLE1=Philip Morgan Lewis - The Whistleblower
TTITLE2=The Bluesbones - Going Down
TTITLE3=The Alabama Lovesnakes - Somebody Call A Doctor
TTITLE4=Cadillac Johnson - Hip To Be Saved
TTITLE5=James House and The Blues Cowboys - Gone Again
TTITLE6=Reverend Rusty and The Case - Back To The Blues
TTITLE7=Tota Blues - Rock Me Baby
TTITLE8=8 Ball Aitken - Shut The Front Door
TTITLE9=Earl and The Agitators - Where's The Rock n' Roll
TTITLE10=Carson Cole - Against the Law To Be Me
TTITLE11=Howard 'Guitar' Luedtke - Seventh Son
TTITLE12=Ty Curtis Band - Stubborn Mind
TTITLE13=Bob Daisley and Joe Lynn Turner - Power Of The Blues
TTITLE14=Blue Words - Paul Black
TTITLE15=Fernando Noronha and Black Soul - Open Your Eyes
TTITLE16=Lew Jetton and 61 South - I Been Cheated
TTITLE17=John 'Juke' Logan - The Real Feel
EXTD=
EXTT0=
EXTT1=
EXTT2=
EXTT3=
EXTT4=
EXTT5=
EXTT6=
EXTT7=
EXTT8=
EXTT9=
EXTT10=
EXTT11=
EXTT12=
EXTT13=
EXTT14=
EXTT15=
EXTT16=
EXTT17=
PLAYORDER=
